<?xml version="1.0" encoding="UTF-8"?><svg xmlns="http://www.w3.org/2000/svg" viewBox="0 0 393.8 243.87"><defs><style>.e{fill:#fff;}.f{fill:#1caed0;}.g{fill:none;stroke:#fff;stroke-linecap:round;stroke-miterlimit:10;stroke-width:5px;}</style></defs><g id="a"/><g id="b"><g id="c"><path class="f" d="M70.26,172c5.21-4.51,9.62-8.02,12.01-9.2,4.23-2.09,8.67-3.86,13.22-5.25l-20.03-33.32-5.21,47.77Z"/><path class="f" d="M161.8,92.63c-14.37-.63-22.93,10.23-23.49,22.94-.56,12.7,7.01,24.28,21.39,24.91,14.37,.63,22.94-10.23,23.5-22.94,.56-12.7-7.01-24.28-21.39-24.91Z"/><path class="f" d="M67.69,110.41c.3-2.16,1.39-3.72,3.8-4.25,2.42-.53,4.06,.43,5.23,2.27l28.12,46.79,6.15-54.21c.01-.15,.04-.28,.06-.42l3.37-29.72c-20.19,3.77-39.61,12.45-56.1,24.34-10.27,7.4-17.86,15.38-24.17,23.99l27.62,45.5,5.91-54.27Z"/><path class="f" d="M28.37,127.76c-7.89,12.65-14.15,26.56-22.62,41.92-3.43,6.23-6.32,20.02-5.66,27.07,.4,4.28,.56,8.07,2.66,9.9,6.99,6.09,27.7,1.73,34.5-4.36,4.31-3.86,13.97-13.11,23.42-21.74-.13-.19-.26-.38-.38-.58l-31.93-52.22Z"/><path class="f" d="M291.18,96.23l33.06-7.27c-8.06-5.42-16.58-10.2-25.43-14.27-13.23-6.08-28.04-10.66-42.34-7.81,5.98-17.95,.6-39.02-13.3-52.28S207.51-3.47,189.13,2.58c-18.38,6.05-32.55,22.69-35.3,41.37-1.46,9.91,.18,17.08,3.17,26.68,.59-1.56,.64,.17,.05,.09-10.9-2.13-22.02-2.46-33.01-1.29l-3.67,31.44c.03,.36,.03,.76-.01,1.15l-6.09,52.24c4.78-.19,9.57,.12,14.3,1.04,15.65,3.04,23.14,6.35,28.79,20.87,1.76,4.51,4.45,9.96,1.91,14.08-1.27,2.06-3.61,8.2-5.82,9.28-9.48,4.67-11.82,7.87-22.34,6.23-10.52-1.64-24.68-9.54-28.99,.39-1.95,4.48,1.04,16.05,4.02,19.99,10.93,14.44,31.48,20.75,49.3,16.34s32.29-18.67,38.02-35.65c3.33-9.87,6.26-22.86,16.84-24.41,7.21-1.06,13.85,4.61,17.04,11s4.03,13.63,6.55,20.29c4.66,12.31,15.32,22.34,28.13,26.46,12.81,4.12,27.49,2.23,38.71-4.98,9.5-6.1,16.57-16.32,16.96-27.4,.17-4.81-.99-9.84-4.22-13.5-3.22-3.66-8.78-5.58-13.35-3.78-6.17,2.44-8.48,10.2-14.42,13.13-6.73,3.32-15.37-1.42-18.49-8.13-3.12-6.7-2.12-14.47-.47-21.63,.68-2.94,1.48-5.92,3.26-8.38,2.23-3.1-1,.49,1.53-2.39,5.7-6.48,16.84-4.41,28.28,.62l-13.27-60.4c-.72-3.26,1.38-6.38,4.65-7.1Zm-99.09,21.71c-.77,17.43-13.93,31.44-32.75,30.61-18.82-.83-30.7-15.94-29.93-33.37,.77-17.43,13.93-31.44,32.75-30.61,18.83,.83,30.7,15.94,29.93,33.37Zm43.29,45.47c-.41,2.25-2.54,3.65-4.61,3.27l-31.63-5.74c-2.51-.46-3.89-2.67-3.47-5l9.04-49.78c.42-2.33,2.41-3.94,5-3.47,2.42,.44,3.75,2.47,3.29,4.97l-8.39,46.23,27.57,5c2.08,.38,3.59,2.35,3.2,4.51Zm36.59-20.14c-1.58,0-2.51-.55-3.35-1.57l-35.64-45.22,.09,42.7c0,2.32-1.66,4.18-4.26,4.19-2.6,0-4.18-1.94-4.19-4.17l-.11-54.86c0-2.69,1.66-4.27,4.35-4.28,1.39,0,2.6,.74,3.34,1.76l35.55,45.04-.09-42.6c0-2.6,1.75-4.27,4.26-4.28,2.51,0,4.18,1.66,4.19,4.26l.11,54.86c0,2.23-1.48,4.18-4.26,4.19Z"/><path class="f" d="M384.37,159.98c-.45,.23-.94,.41-1.45,.53l-29.48,6.48v-.06l-34.28,7.53c4.04,2.64,7.65,5.23,10.48,7.41,16.8,12.89,23.27,17.55,31.65,26.98,5.78,6.5,9.74,17.5,18.33,15.56,5.59-1.26,10.63-8.81,12.13-14.19,4.84-17.4,.53-29.71-7.39-50.24Z"/><path class="f" d="M304.33,128.94l22-4.83c2.9-.64,5.82,1.13,6.49,4.15,.69,3.14-1.25,5.85-4.15,6.49l-22,4.83,5.55,25.26,40.73-8.95c.22-.05,.44-.06,.66-.09l26.65-5.86c-6.48-13.79-16.54-25.94-27.28-37-5.33-5.48-11.03-10.62-17.03-15.39l-36.75,8.08,5.13,23.32Z"/><path class="e" d="M120.37,100.88l-2.92,25.04c-.21,2.03-1.11,3.99-3.94,4.61-.79,.17-1.52,.17-2.2,.03v-21.06c0-1.21-.36-2.2-.93-2.95l.68-5.97c-.02,.14-.05,.27-.06,.42l-6.15,54.21-28.12-46.79c-1.17-1.84-2.82-2.8-5.23-2.27-2.42,.53-3.5,2.09-3.8,4.25l-5.91,54.27-27.62-45.5c-2.05,2.79-3.96,5.65-5.79,8.58l31.93,52.22c.12,.2,.25,.39,.38,.58,3.3-3.02,6.57-5.95,9.58-8.56l5.21-47.77,20.03,33.32c6.11-1.86,12.43-3.02,18.78-3.28l6.09-52.24c.04-.38,.04-.79,.01-1.15Zm-45.39,13.87c-.02,.42-.05,.85-.08,1.28-.09-2.04-.19-4.09-.24-6.14,.17-.05,.34-.11,.51-.18-.04,1.68-.1,3.36-.2,5.03Z"/><path class="e" d="M162.16,84.57c-18.82-.83-31.98,13.18-32.75,30.61-.77,17.43,11.11,32.54,29.93,33.37,18.83,.83,31.98-13.18,32.75-30.61,.77-17.43-11.11-32.54-29.93-33.37Zm21.03,32.98c-.56,12.7-9.12,23.57-23.5,22.94-14.37-.63-21.95-12.21-21.39-24.91,.56-12.7,9.12-23.57,23.49-22.94,14.37,.63,21.95,12.21,21.39,24.91Z"/><path class="e" d="M232.18,158.9l-27.57-5,8.39-46.23c.45-2.51-.87-4.53-3.29-4.97-2.59-.47-4.58,1.13-5,3.47l-9.04,49.78c-.42,2.33,.96,4.55,3.47,5l31.63,5.74c2.08,.38,4.2-1.02,4.61-3.27,.39-2.16-1.12-4.13-3.2-4.51Z"/><path class="e" d="M271.94,79.96c-2.51,0-4.27,1.68-4.26,4.28l.09,42.6-35.55-45.04c-.74-1.02-1.95-1.76-3.34-1.76-2.69,0-4.36,1.59-4.35,4.28l.11,54.86c0,2.23,1.59,4.17,4.19,4.17,2.6,0,4.27-1.87,4.26-4.19l-.09-42.7,35.64,45.22c.84,1.02,1.77,1.57,3.35,1.57,2.79,0,4.27-1.96,4.26-4.19l-.11-54.86c0-2.6-1.68-4.27-4.19-4.26Z"/><path class="e" d="M324.24,88.97c4.02,2.7,7.92,5.57,11.71,8.58l-11.71-8.58Z"/><path class="e" d="M353.38,155.96s0-.07,0-.11l.23-.05c-.22,.03-.44,.04-.66,.09l-40.73,8.95-5.55-25.26,22-4.83c2.9-.64,4.84-3.34,4.15-6.49-.66-3.02-3.59-4.79-6.49-4.15l-22,4.83-5.13-23.32,36.75-8.08c-3.78-3.01-7.69-5.87-11.71-8.58l-33.06,7.27c-3.26,.72-5.36,3.84-4.65,7.1l13.27,60.4c6.69,2.94,13.48,6.88,19.35,10.72l34.28-7.53c-.01-3.66-.05-7.31-.06-10.97Z"/><path class="e" d="M74.91,116.03c.03-.44,.05-.86,.08-1.28,.09-1.68,.15-3.35,.2-5.03-.17,.07-.34,.13-.51,.18,.05,2.05,.16,4.1,.24,6.14Z"/><path class="e" d="M114.77,96.64c2.73-.6,4.91,.79,5.51,3.52,.04,.18,.07,.43,.09,.71l3.67-31.44c-3.22,.34-6.42,.81-9.61,1.41l-3.37,29.72c.33-2.2,1.54-3.45,3.71-3.93Z"/><path class="e" d="M114.77,96.64c-2.17,.48-3.38,1.73-3.71,3.93l-.68,5.97c.58,.76,.93,1.74,.93,2.95v21.06c.67,.14,1.41,.14,2.2-.03,2.84-.62,3.73-2.58,3.94-4.61l2.92-25.04c-.02-.27-.05-.53-.09-.71-.6-2.73-2.78-4.12-5.51-3.52Z"/><path class="e" d="M359.67,159.98c.66,3.02-1.37,5.88-4.39,6.54l-1.84,.4v.06l29.48-6.48c.52-.11,1-.3,1.45-.53-.57-1.48-1.16-2.99-1.76-4.56-.72-1.86-1.51-3.68-2.35-5.48l-26.65,5.86c2.78-.32,5.4,1.16,6.07,4.18Z"/><path class="e" d="M359.67,159.98c-.66-3.02-3.28-4.51-6.07-4.18l-.23,.05s0,.07,0,.11c0,3.66,.04,7.31,.06,10.97l1.84-.4c3.02-.66,5.05-3.52,4.39-6.54Z"/></g><g id="d"><path class="g" d="M185.85,55.1c2.26,.3,5.8,.71,10.15,.9,12.89,.56,23.55,1.02,29.33-5.44,1.31-1.47,3.26-4.29,3.87-9.39"/><path class="g" d="M193.89,25.75c-.05,2.77,.25,5.5,.88,8.17"/><path class="g" d="M210.62,23.99c-.05,2.77,.25,5.5,.88,8.17"/></g></g></svg>